<?xml version="1.0" standalone="no"?>
<!DOCTYPE svg PUBLIC "-//W3C//DTD SVG 20010904//EN"
 "http://www.w3.org/TR/2001/REC-SVG-20010904/DTD/svg10.dtd">
<svg version="1.0" xmlns="http://www.w3.org/2000/svg"
 width="500.000000pt" height="500.000000pt" viewBox="0 0 500.000000 500.000000"
 preserveAspectRatio="xMidYMid meet">

<g transform="translate(0.000000,500.000000) scale(0.100000,-0.100000)"
fill="#000000" stroke="none">
<path d="M2350 4899 c-342 -20 -637 -97 -932 -245 -473 -237 -840 -606 -1072
-1077 -89 -180 -135 -301 -175 -463 -99 -398 -100 -789 -1 -1184 189 -757 750
-1378 1487 -1649 559 -204 1154 -196 1713 25 701 278 1238 894 1425 1634 67
265 88 637 51 895 -63 440 -233 835 -505 1180 -71 90 -254 273 -355 355 -331
267 -727 443 -1136 504 -99 15 -333 37 -355 34 -5 0 -71 -4 -145 -9z m130
-421 c19 -13 45 -45 59 -73 23 -44 26 -62 26 -155 0 -143 -23 -308 -47 -332
-27 -27 -23 -29 31 -22 27 3 95 1 152 -6 169 -19 274 -62 302 -122 6 -16 15
-28 19 -28 11 0 10 38 -1 59 -9 16 9 23 187 74 108 30 198 54 200 52 2 -2 -10
-11 -27 -20 -18 -9 -31 -23 -31 -34 0 -10 -7 -25 -16 -32 -15 -12 -18 -11 -27
3 -9 14 -27 8 -153 -55 -141 -70 -143 -72 -149 -109 -7 -41 -64 -134 -119
-195 -35 -39 -35 -40 -21 -79 22 -60 19 -147 -4 -168 -72 -66 -258 -58 -393
17 l-58 32 0 47 c0 27 -2 48 -4 48 -11 0 -116 -117 -116 -128 0 -8 9 -45 21
-82 16 -53 24 -67 36 -63 20 8 34 -16 22 -39 -19 -36 -47 -21 -95 52 -32 48
-48 83 -51 114 -5 41 0 54 53 146 33 55 67 102 76 106 27 8 71 -18 78 -46 l6
-24 21 30 c51 71 43 120 -26 157 -32 18 -61 44 -81 74 -47 72 -49 91 -12 125
36 32 44 55 13 38 -35 -18 -48 -11 -69 38 -35 82 -54 174 -55 267 -1 114 15
188 56 256 56 94 129 122 197 77z m763 -1932 c34 -8 67 -59 67 -103 0 -32 -2
-33 -39 -33 -37 0 -40 2 -43 33 -2 26 -8 33 -30 35 -19 2 -30 -3 -38 -18 -19
-35 -2 -77 51 -128 28 -26 61 -65 75 -88 41 -69 27 -176 -27 -205 -29 -15
-104 -15 -134 1 -31 16 -55 67 -55 115 0 36 0 36 38 33 35 -3 37 -5 40 -40 3
-31 8 -39 28 -44 30 -8 54 11 54 43 0 35 -16 61 -80 129 -86 89 -102 175 -47
240 20 23 77 44 102 38 6 -1 23 -5 38 -8z m-1943 -13 c1 -35 38 -354 42 -358
2 -3 10 60 16 138 22 251 19 237 62 237 44 0 41 11 61 -220 6 -74 16 -139 20
-144 5 -6 9 2 9 20 0 16 7 100 17 187 l16 157 34 0 c20 0 33 -5 33 -12 0 -7
-12 -124 -27 -260 l-27 -248 -52 0 c-61 0 -55 -13 -74 154 -5 49 -11 91 -13
93 -2 2 -7 -33 -11 -78 -4 -44 -9 -101 -13 -125 l-6 -45 -56 3 -56 3 -27 240
c-15 132 -27 248 -27 258 -1 13 7 17 39 17 31 0 40 -4 40 -17z m460 -93 l0
-110 45 0 45 0 0 110 0 110 40 0 40 0 0 -260 0 -260 -40 0 -40 0 0 110 0 110
-45 0 -45 0 0 -110 0 -110 -40 0 -40 0 0 260 0 260 40 0 40 0 0 -110z m480 75
l0 -35 -70 0 -70 0 0 -75 0 -75 55 0 55 0 0 -35 0 -35 -55 0 -55 0 0 -80 0
-80 70 0 70 0 0 -35 0 -35 -110 0 -110 0 0 260 0 260 110 0 110 0 0 -35z m254
25 c42 -16 61 -56 61 -131 0 -53 -5 -74 -21 -96 l-21 -28 21 -28 c16 -23 21
-46 24 -127 l4 -100 -40 0 -40 0 -4 89 c-5 99 -15 121 -59 121 l-29 0 0 -105
0 -105 -40 0 -40 0 0 260 0 260 79 0 c44 0 91 -4 105 -10z m356 -25 l0 -34
-67 -3 -68 -3 -3 -72 -3 -73 61 0 60 0 0 -35 0 -34 -57 -3 -58 -3 0 -75 0 -75
68 -3 67 -3 0 -34 0 -35 -110 0 -110 0 0 260 0 260 110 0 110 0 0 -35z m150
-9 c0 -24 -3 -58 -6 -75 -6 -27 -11 -32 -33 -29 -25 3 -26 6 -29 76 l-3 72 36
0 c35 0 35 0 35 -44z m704 17 c9 -42 76 -468 76 -481 0 -7 -16 -12 -39 -12
-39 0 -40 0 -47 45 l-6 46 -52 -3 -51 -3 -5 -40 c-5 -38 -7 -40 -42 -43 -21
-2 -38 0 -38 5 0 4 18 120 40 256 22 137 40 250 40 253 0 2 27 4 59 4 57 0 60
-1 65 -27z m-2087 -686 c26 -25 28 -35 31 -116 3 -66 0 -96 -12 -119 -21 -40
-31 -46 -91 -52 l-50 -5 -3 -97 -3 -98 -39 0 -40 0 0 261 0 261 90 -4 c82 -3
92 -5 117 -31z m183 -192 l0 -225 65 0 65 0 0 -35 0 -35 -105 0 -105 0 0 260
0 260 40 0 40 0 0 -225z m272 9 c3 -194 5 -218 21 -228 12 -8 22 -8 35 0 15
10 17 34 20 228 l2 216 40 0 40 0 0 -216 c0 -270 -9 -295 -107 -309 -46 -7
-102 18 -120 55 -9 18 -13 90 -13 248 l0 222 40 0 40 0 2 -216z m351 194 c3
-13 16 -89 28 -170 13 -82 25 -148 29 -148 3 0 17 75 30 168 l25 167 58 3 57
3 0 -261 0 -260 -40 0 -40 0 -1 168 -1 167 -26 -167 -25 -168 -39 0 c-21 0
-38 1 -39 3 0 1 -13 74 -29 162 l-28 160 -1 -162 -1 -163 -35 0 -35 0 0 260 0
260 54 0 c48 0 54 -3 59 -22z m491 12 c40 -15 61 -56 61 -121 0 -44 -6 -65
-23 -88 -12 -17 -18 -31 -13 -31 35 0 56 -156 30 -214 -18 -39 -66 -56 -158
-56 l-81 0 0 260 0 260 79 0 c44 0 91 -4 105 -10z m366 -25 l0 -35 -70 0 -70
0 0 -75 0 -75 55 0 55 0 0 -35 0 -35 -55 0 -55 0 0 -80 0 -80 70 0 70 0 0 -35
0 -35 -115 0 -115 0 0 253 c0 140 3 257 7 260 3 4 55 7 115 7 l108 0 0 -35z
m255 21 c45 -19 55 -42 55 -129 0 -58 -4 -80 -19 -98 -18 -22 -18 -24 -1 -49
14 -19 19 -50 23 -127 l4 -103 -37 0 c-46 0 -50 8 -50 109 0 85 -8 101 -52
101 l-28 0 0 -105 0 -105 -40 0 -40 0 0 260 0 260 75 0 c43 0 90 -6 110 -14z
m-840 -1021 c29 0 30 -1 32 -50 l1 -50 -7 42 c-4 24 -11 46 -15 50 -14 15 -41
-15 -47 -53 -4 -28 -6 -19 -6 36 -1 41 2 64 6 50 5 -20 12 -25 36 -25z m-1025
-30 c0 -37 -4 -65 -10 -65 -6 0 -10 28 -10 65 0 37 4 65 10 65 6 0 10 -28 10
-65z m1688 40 c2 -12 -8 -31 -23 -45 -14 -13 -25 -19 -25 -13 0 6 7 16 15 23
25 21 18 48 -12 53 -21 4 -19 4 7 3 27 -1 36 -6 38 -21z m-520 -5 c15 -1 15
-2 0 -11 -23 -13 -23 -52 -1 -74 16 -16 15 -17 -3 -13 -14 2 -20 14 -24 50 -6
47 -1 85 8 61 2 -7 11 -13 20 -13z m432 -3 c12 -4 11 -6 -2 -6 -14 -1 -18 -10
-18 -36 0 -22 6 -38 18 -45 15 -10 15 -10 -3 -8 -16 3 -21 13 -25 50 -6 49 -2
77 9 61 3 -6 13 -13 21 -16z m-1494 -52 l2 -50 -7 45 c-5 36 -10 45 -26 45
-16 0 -21 -8 -23 -42 -4 -59 -22 -54 -22 5 l0 48 38 -1 37 0 1 -50z m154 36
c5 -11 10 -33 10 -49 0 -28 -2 -30 -37 -29 -31 2 -39 6 -41 25 -3 18 2 23 28
28 34 7 36 29 1 28 -11 0 -21 3 -21 8 0 17 50 8 60 -11z m140 10 c0 -5 -8 -7
-19 -4 -32 8 -33 -15 -1 -32 41 -21 37 -49 -8 -53 -17 -2 -32 1 -32 6 0 5 11
7 25 4 17 -3 25 0 25 10 0 8 -11 20 -25 26 -24 11 -32 31 -18 45 10 10 53 8
53 -2z m52 -33 c2 -35 7 -43 23 -43 16 0 21 8 23 43 4 58 22 53 22 -6 l0 -49
-37 -1 c-43 -2 -53 9 -53 61 0 51 18 47 22 -5z m178 17 c6 -16 6 -34 0 -51 -9
-22 -15 -25 -40 -22 -25 4 -30 1 -33 -21 -2 -14 -5 6 -6 44 l-1 71 35 2 c30 2
37 -1 45 -23z m98 13 c23 -23 13 -38 -23 -38 -49 0 -42 -30 10 -43 16 -4 15
-5 -5 -6 -33 -1 -50 16 -50 49 0 29 16 50 40 50 9 0 21 -5 28 -12z m75 -3
c-14 -10 -23 -29 -26 -53 -3 -32 -4 -30 -5 13 -2 48 -1 51 25 53 28 2 28 2 6
-13z m125 8 c-34 -5 -36 -25 -5 -38 12 -6 22 -19 22 -30 0 -15 -8 -21 -32 -23
-18 -2 -33 1 -33 6 0 5 11 7 24 5 36 -7 41 14 6 32 -47 25 -39 56 14 54 30 -2
30 -2 4 -6z m182 -43 c0 -27 -4 -50 -10 -50 -5 0 -10 23 -10 50 0 28 5 50 10
50 6 0 10 -22 10 -50z m200 41 c0 -5 -8 -7 -19 -4 -32 8 -33 -15 -1 -32 33
-17 33 -17 24 -39 -6 -17 -64 -23 -64 -7 0 4 11 6 25 3 17 -3 25 0 25 10 0 8
-11 20 -25 26 -24 11 -32 31 -18 45 10 10 53 8 53 -2z m112 -16 c16 -36 -3
-75 -37 -75 -18 0 -25 -5 -25 -20 0 -11 -4 -20 -10 -20 -6 0 -10 29 -10 68 l0
67 35 3 c29 2 37 -2 47 -23z m110 0 c16 -35 -3 -75 -35 -75 -30 0 -47 18 -47
50 0 52 61 71 82 25z m128 -65 c0 -5 -4 -10 -10 -10 -5 0 -10 5 -10 10 0 6 5
10 10 10 6 0 10 -4 10 -10z"/>
<path d="M2397 2473 c-4 -3 -7 -40 -7 -80 l0 -74 38 3 37 3 3 68 c3 64 2 68
-23 77 -31 12 -39 12 -48 3z"/>
<path d="M3621 2353 c-7 -49 -15 -105 -18 -125 l-6 -38 37 0 c33 0 36 3 36 28
0 29 -29 214 -34 219 -2 2 -8 -36 -15 -84z"/>
<path d="M1497 1793 c-4 -3 -7 -44 -7 -90 l0 -83 28 0 c43 0 52 17 52 92 0 64
-2 69 -26 78 -30 12 -38 12 -47 3z"/>
<path d="M2817 1793 c-4 -3 -7 -35 -7 -70 0 -60 1 -63 24 -63 49 0 56 9 56 66
0 49 -2 55 -26 64 -30 12 -38 12 -47 3z"/>
<path d="M2810 1505 c0 -83 9 -96 59 -79 23 9 26 15 29 68 4 68 -8 86 -54 86
l-34 0 0 -75z"/>
<path d="M3437 1793 c-4 -3 -7 -39 -7 -80 l0 -73 34 0 c40 0 46 11 46 86 0 49
-2 55 -26 64 -30 12 -38 12 -47 3z"/>
<path d="M1880 780 c-11 -7 -12 -12 -3 -21 15 -15 43 -5 43 16 0 17 -18 19
-40 5z"/>
<path d="M2242 818 c-23 -23 -7 -68 25 -68 18 0 28 47 13 65 -15 18 -22 19
-38 3z"/>
<path d="M2350 815 c-11 -13 -9 -15 15 -15 16 0 25 5 23 12 -7 19 -24 20 -38
3z"/>
<path d="M3034 816 c-11 -28 0 -61 21 -61 16 0 20 7 20 35 0 25 -5 36 -18 38
-9 2 -20 -3 -23 -12z"/>
<path d="M3140 811 c-14 -27 4 -64 28 -59 12 2 17 13 17 38 0 41 -27 53 -45
21z"/>
</g>
</svg>
